<?xml version="1.0" encoding="UTF-8"?>
<svg id="Layer_1" xmlns="http://www.w3.org/2000/svg" version="1.1" viewBox="0 0 792 612">
  <!-- Generator: Adobe Illustrator 29.6.1, SVG Export Plug-In . SVG Version: 2.1.1 Build 9)  -->
  <defs>
    <style>
      .st0 {
        fill: #a7a3b6;
      }

      .st1 {
        fill: #f6f5fa;
      }

      .st2 {
        fill: #352b52;
      }

      .st3 {
        fill: #8876b6;
      }

      .st4 {
        fill: #fff;
      }
    </style>
  </defs>
  <ellipse class="st1" cx="396.2" cy="531.1" rx="167.5" ry="21.7"/>
  <g>
    <path class="st3" d="M280.7,187.8c9.3-5.8,18.9-11,28.5-15.5,9.7-4.5,20.5-7.8,29.8-12.4,8.2-4,15.8-9.8,23.7-14.3,29.4-16.9,58.9-33.8,89.8-47.9-9-8.7-17.8-16.2-29.2-21.6-30-14.2-75.3-12.9-107.8-.5-29.2,28.5-42.8,71.8-34.8,112.2Z"/>
    <path class="st4" d="M499.2,202c-.7-.6-1.3-1.1-1.8-1.3-50.9-34-152.4-37.6-199.1,6.2-33.2,31.1-22.4,66.4-23.9,107.6-1.7,45.7-15,74.7-24,116.6-4.2,19.5-3.4,34.3,14.8,44.1.4.2,1.2.5,2.2.8,3.3-.7,6.5-1.8,9.5-3.3,12.1-6.1,20.7-20.8,34.6-22.6,23-2.9,30.7,18.2,44.8,30.9,25,22.6,62,22.9,87.4.8,9.7-8.4,20.5-27.9,32-31.1,15.1-4.2,23.7,9.9,36.1,14.9,26.7,10.8,50.4-15,41.3-41.3-13.8-57.7-24.5-116.3-38.9-173.9-3.4-13.4-7.9-33.3-14.9-48.4ZM369.9,279.7c-34.4,8.6-38.6-68.3-6.6-71.8,31.8-3.4,34.9,64.7,6.6,71.8ZM453.5,280.3c-30.9-.3-31-68.7-3.1-72.5,35.2-4.8,35.7,72.8,3.1,72.5Z"/>
    <path class="st0" d="M246.7,433.1c9.3-42.9,23.1-72.5,24.9-119.2,1.6-42.1-9.6-78.2,24.8-109.9,48.5-44.7,153.7-41,206.5-6.3.4.3,1.1.8,1.8,1.4-2.5-5.2-5.2-9.9-8.3-13.5-21.6-25.4-61.9-31.2-93.8-29.6-50,2.4-124.1,31.2-149.8,75.8-6.7,11.7-2.8,26.2-2.5,39,.5,23.3,0,46.3-3.4,69.3-4.5,30.8-14.2,60.2-20.7,90.5-2.6,12.1-5.1,22.5,1.7,33.8,7.7,12.8,22.5,17.4,36.4,14.6-1-.3-1.8-.6-2.3-.8-18.8-10-19.7-25.2-15.3-45.1Z"/>
    <path class="st3" d="M564.6,139.8c22.3-27.8,8.1-46.1-24.4-48-40.5-2.4-88.6,16.7-124.2,35l-34.7,19.5c43.3-1.1,93,2.5,123.5,37,20.8-10.9,44.9-25,59.7-43.5Z"/>
    <path class="st2" d="M583.5,124.4c6.6-31-22-46.7-48.7-48.3-26.1-1.5-51.8,5-75.8,14.4-15.4-17.4-35.9-30.6-58.6-36-13.2-3.2-26.8-4-40.4-3.5-2.5,0-6.8,1.3-9,1.1-1.3-.1-5.3-3.3-7.1-4.2-17.2-8.4-40.1,0-47.6,17.4-.4,1-.5,2.8-.8,3.2-.2.3-5.9,2.8-7,3.4-35.9,21.3-62.8,57.4-70.7,98.8-4.2,22-4.4,54.1,10.5,72.5,1,1.2,4.4,3.9,4.7,4.9.4,1.3.6,9.4.7,11.6,1.7,40-1.8,75.3-10.3,114.3-5.3,24.2-20.2,65.6-13.5,88.7,9.4,31.8,47.4,41.8,75.6,29.1,9.7-4.4,15-11,23.2-15.9,11.9-7,18.4,7.6,25.2,15.1,36.5,40.3,97.2,40.6,133.1-.5,2.8-3.2,10.8-15.7,14-16.5,4.7-1.1,8.7,3.9,12.3,6.2,21.2,13.4,45.4,12.6,64.6-4.2,26.2-22.9,16.5-52.1,10.1-81.3-11.2-51.4-22.5-104.9-35.7-155.7-4.4-16.8-9.4-33.5-15.9-49.6,1.9-.1,3.6-1.2,5.2-2.1,22-11.8,56.6-37.5,62-63.1ZM414,77.7c10.1,4.8,17.9,11.4,25.8,19.1-27.3,12.5-53.4,27.4-79.5,42.4-7,4-13.8,9.1-21,12.7-8.3,4.1-17.9,7-26.4,11-8.5,4-17,8.5-25.2,13.7-7.1-35.7,4.9-74,30.8-99.3,28.8-11,68.9-12.2,95.4.4ZM552.9,424.3c9.1,26.3-14.6,52.1-41.3,41.3-12.4-5-21-19.1-36.1-14.9-11.5,3.2-22.2,22.7-32,31.1-25.4,22.1-62.4,21.8-87.4-.8-14.1-12.7-21.7-33.8-44.8-30.9-13.9,1.8-22.5,16.5-34.6,22.6-3,1.5-6.3,2.6-9.5,3.3-13.4,2.7-27.7-1.8-35.1-14.3-6.6-11.1-4.1-21.3-1.7-33.1,6.2-29.7,15.6-58.5,20-88.6,3.3-22.6,3.8-45,3.3-67.8-.3-12.6-4.1-26.7,2.4-38.2,24.8-43.7,96.2-71.8,144.4-74.2,30.7-1.5,69.6,4.1,90.4,29,3,3.6,5.6,8.1,8,13.2,7,15.1,11.5,35,14.9,48.4,14.4,57.6,25.2,116.1,38.9,173.9ZM503.7,173.9c-26.3-29.8-69.3-32.9-106.6-31.9l29.9-16.9c30.7-15.8,72.2-32.3,107.2-30.2,28.1,1.7,40.4,17.5,21.1,41.5-12.9,16-33.6,28.1-51.6,37.6Z"/>
    <path class="st2" d="M363.3,207.9c-32,3.5-27.9,80.4,6.6,71.8,28.3-7.1,25.2-75.2-6.6-71.8Z"/>
    <path class="st2" d="M450.4,207.9c-27.9,3.8-27.8,72.2,3.1,72.5,32.6.3,32.1-77.2-3.1-72.5Z"/>
  </g>
</svg>